<svg xmlns="http://www.w3.org/2000/svg" xmlns:xlink="http://www.w3.org/1999/xlink" viewBox="0,0,256,256" width="50px" height="50px" fill-rule="nonzero"><g transform="translate(51.2,51.2) scale(0.6,0.6)"><g fill="#5c7cfa" fill-rule="nonzero" stroke="none" stroke-width="1" stroke-linecap="butt" stroke-linejoin="miter" stroke-miterlimit="10" stroke-dasharray="" stroke-dashoffset="0" font-family="none" font-weight="none" font-size="none" text-anchor="none" style="mix-blend-mode: normal"><path d="M21.33333,341.33333c-58.91037,0 -106.66667,-47.75629 -106.66667,-106.66667v-213.33333c0,-58.91037 47.75629,-106.66667 106.66667,-106.66667h213.33333c58.91037,0 106.66667,47.75629 106.66667,106.66667v213.33333c0,58.91037 -47.75629,106.66667 -106.66667,106.66667z" id="shape"></path></g><g fill="#fffdfd" fill-rule="nonzero" stroke="none" stroke-width="1" stroke-linecap="butt" stroke-linejoin="miter" stroke-miterlimit="10" stroke-dasharray="" stroke-dashoffset="0" font-family="none" font-weight="none" font-size="none" text-anchor="none" style="mix-blend-mode: normal"><g transform="scale(5.12,5.12)"><path d="M49.729,11h-0.85c-1.051,0 -2.041,0.49 -2.68,1.324l-8.7,11.377l-8.7,-11.377c-0.637,-0.834 -1.628,-1.324 -2.678,-1.324h-0.85l10.971,14.346l-11.206,14.654h0.85c1.051,0 2.041,-0.49 2.679,-1.324l8.935,-11.684l8.935,11.684c0.638,0.834 1.628,1.324 2.679,1.324h0.85l-11.206,-14.654zM21.289,34.242c-2.554,3.881 -7.582,5.87 -12.389,4.116c-4.229,-1.543 -6.9,-5.747 -6.9,-10.249v-1.109h12v0h11v-4.134c0,-6.505 -4.818,-12.2 -11.295,-12.809c-7.432,-0.699 -13.705,5.153 -13.705,12.443v5.573c0,5.371 3.215,10.364 8.269,12.183c6.603,2.376 13.548,-1.17 15.896,-7.256v0h-0.638c-0.911,0 -1.738,0.481 -2.238,1.242zM2,22.5c0,-5.79 4.71,-10.5 10.5,-10.5c5.79,0 10.5,4.71 10.5,10.5v2.5h-21z"></path></g></g><g fill="#000000" fill-rule="nonzero" stroke="none" stroke-width="1" stroke-linecap="butt" stroke-linejoin="miter" stroke-miterlimit="10" stroke-dasharray="" stroke-dashoffset="0" font-family="none" font-weight="none" font-size="none" text-anchor="none" style="mix-blend-mode: normal"><g><path d="M172.585,197.772h4.17v27.16c0,4.68 -2.12333,7.02 -6.37,7.02v0c-0.91333,0 -1.76,-0.13333 -2.54,-0.4v0v-3.33c0.48,0.12 1.11,0.18 1.89,0.18v0c0.92667,0 1.63333,-0.25333 2.12,-0.76c0.48667,-0.5 0.73,-1.37333 0.73,-2.62v0zM172.165,191.322v0c0,-0.66 0.20667,-1.22667 0.62,-1.7c0.40667,-0.47333 1.01,-0.71 1.81,-0.71v0c0.80667,0 1.42,0.23333 1.84,0.7c0.42,0.46667 0.63,1.03667 0.63,1.71c0,0.67333 -0.21,1.23333 -0.63,1.68c-0.42,0.45333 -1.03333,0.68 -1.84,0.68c-0.81333,0 -1.42333,-0.22667 -1.83,-0.68c-0.4,-0.44667 -0.6,-1.00667 -0.6,-1.68zM193.765,207.522v0c-3.70667,-1.06667 -6.40333,-2.37667 -8.09,-3.93c-1.68667,-1.55333 -2.53,-3.47 -2.53,-5.75v0c0,-2.58 1.03,-4.71333 3.09,-6.4c2.06,-1.68667 4.74333,-2.53 8.05,-2.53v0c2.24667,0 4.25,0.43667 6.01,1.31c1.76667,0.86667 3.13333,2.06333 4.1,3.59c0.96667,1.53333 1.45,3.20667 1.45,5.02v0h-4.34c0,-1.98 -0.63,-3.53667 -1.89,-4.67c-1.26,-1.12667 -3.03667,-1.69 -5.33,-1.69v0c-2.13333,0 -3.79667,0.46667 -4.99,1.4c-1.19333,0.94 -1.79,2.24 -1.79,3.9v0c0,1.34 0.56667,2.47 1.7,3.39c1.13333,0.92 3.06,1.76333 5.78,2.53c2.72667,0.76667 4.85667,1.61 6.39,2.53c1.54,0.92667 2.68,2.00333 3.42,3.23c0.74667,1.23333 1.12,2.68 1.12,4.34v0c0,2.66 -1.03667,4.78667 -3.11,6.38c-2.06667,1.6 -4.83333,2.4 -8.3,2.4v0c-2.25333,0 -4.35333,-0.43 -6.3,-1.29c-1.95333,-0.86667 -3.45667,-2.05 -4.51,-3.55c-1.06,-1.5 -1.59,-3.2 -1.59,-5.1v0h4.34c0,1.97333 0.73333,3.53667 2.2,4.69c1.46,1.14667 3.41333,1.72 5.86,1.72v0c2.28,0 4.02667,-0.46667 5.24,-1.4c1.22,-0.92667 1.83,-2.19333 1.83,-3.8c0,-1.60667 -0.56333,-2.84667 -1.69,-3.72c-1.12667,-0.88 -3.16667,-1.74667 -6.12,-2.6z"></path></g></g></g></svg>